<?xml version="1.0" encoding="UTF-8" standalone="no"?>
<svg width="1002px" height="568px" viewBox="0 0 1002 568" version="1.1" xmlns="http://www.w3.org/2000/svg" xmlns:xlink="http://www.w3.org/1999/xlink" xmlns:sketch="http://www.bohemiancoding.com/sketch/ns">
    <!-- Generator: Sketch 3.3.1 (12002) - http://www.bohemiancoding.com/sketch -->
    <title>Group + usa-35713</title>
    <desc>Created with Sketch.</desc>
    <defs>
        <linearGradient x1="50%" y1="0%" x2="50%" y2="100%" id="linearGradient-1">
            <stop stop-color="#F0E5D3" offset="0%"></stop>
            <stop stop-color="#CFBFAE" offset="100%"></stop>
        </linearGradient>
        <linearGradient x1="50%" y1="0%" x2="50%" y2="100%" id="linearGradient-2">
            <stop stop-color="#2ED051" offset="0%"></stop>
            <stop stop-color="#13B429" offset="100%"></stop>
        </linearGradient>
        <linearGradient x1="50%" y1="0%" x2="50%" y2="100%" id="linearGradient-3">
            <stop stop-color="#D16CFF" offset="0%"></stop>
            <stop stop-color="#A52AFF" offset="100%"></stop>
        </linearGradient>
        <linearGradient x1="50%" y1="0%" x2="50%" y2="100%" id="linearGradient-4">
            <stop stop-color="#FBBE58" offset="0%"></stop>
            <stop stop-color="#F67F17" offset="100%"></stop>
        </linearGradient>
        <linearGradient x1="50%" y1="0%" x2="50%" y2="100%" id="linearGradient-5">
            <stop stop-color="#7CA9E5" offset="0%"></stop>
            <stop stop-color="#3060C4" offset="100%"></stop>
        </linearGradient>
        <linearGradient x1="50%" y1="0%" x2="50%" y2="100%" id="linearGradient-6">
            <stop stop-color="#EC5065" offset="0%"></stop>
            <stop stop-color="#D2121C" offset="100%"></stop>
        </linearGradient>
        <linearGradient x1="50%" y1="0%" x2="50%" y2="100%" id="linearGradient-7">
            <stop stop-color="#FEFE00" offset="0%"></stop>
            <stop stop-color="#FBFB00" offset="100%"></stop>
        </linearGradient>
    </defs>
    <g id="Page-1" stroke="none" stroke-width="1" fill="none" fill-rule="evenodd" sketch:type="MSPage">
        <g id="Artboard-1" sketch:type="MSArtboardGroup" transform="translate(-32.000000, -28.000000)">
            <g id="Group-+-usa-35713" sketch:type="MSLayerGroup" transform="translate(33.000000, 28.000000)">
                <g id="Group" transform="translate(117.000000, 0.000000)" sketch:type="MSShapeGroup">
                    <path d="M705.495117,486.901367 L741.950195,476.03125 L743.498047,481.397461 L755.859375,499.328125 L756.666016,515.516602 L752.764648,531.529297 L746.519531,536.413086 L741.894531,536.413086 L738.614258,534.180664 L736.317383,529.90918 L726.438477,520.780273 L719.581055,516.702148 L720.265625,512.421875 L716.80957,508.344727 L716.438477,501.84082 L711.740234,503.508789 L705.745117,497.383789 L703.270508,494.96582 L705.495117,486.901367 Z" id="Path-76" fill="url(#linearGradient-1)"></path>
                    <path d="M788.265625,100.296875 L815.092773,95.3173828 L815.963867,92.4648438 L813.239258,87.0634766 L820.541016,85.0810547 L822.40332,81.7919922 L825.005859,73.8701172 L827.173828,62.9179688 L825.200195,48.9521484 L830.342773,44.3095703 L829.712891,29.9648438 L835.09668,27.546875 L840.47168,32.671875 L847.708008,27.7802734 L851.859375,27.1591797 L856.888672,33.7929688 L860.595703,46.2099609 L861.53125,62.2050781 L863.708008,65.4384766 L869.147461,62.7871094 L870.879883,67.1796875 L876.013672,74.3779297 L881.211914,75.7958984 L883.138672,78.0927734 L880.228516,80.9462891 L874.160156,81.0029297 L865.125977,88.7304688 L864.504883,85.4980469 L862.716797,89.2695312 L857.759766,89.0195313 L858.130859,96.5625 L845.648438,109.850586 L840.764648,117.522461 L837.605469,127.604492 L837.790039,136.259766 L839.290039,136.074219 L841.561523,144.617188 L849.095703,152.836914 L854.600586,153.021484 L855.461914,149.06543 L856.954102,151.547852 L857.695312,153.789062 L851.979492,156.336914 L845.911133,156.336914 L843.927734,159.246094 L837.005859,157.151367 L836.505859,164.444336 L834.514648,167.603516 L828.269531,167.603516 L815.639648,170.383789 L806.791016,177.370117 L798.821289,192.456055 L804.131836,195.663086 L804.9375,205.744141 L801.972656,213.110352 L799.610352,213.481445 L772.921875,197.663086 L781.511719,165.099609 L767.805664,161.336914 L783.624023,140.634766 L788.265625,100.296875 Z" id="Path-75" fill="url(#linearGradient-1)"></path>
                    <path d="M212.126953,411.710938 L228.117188,413.195312 L228.117188,408.082031 L257.064453,410.289062 L263.660156,414.753906 L271.253906,421.074219 L273.607422,426.296875 L283.650391,433.357422 L284.056641,439.435547 L290.261719,446.642578 L292.392578,457.185547 L312.443359,472.529297 L319.503906,468.564453 L321.115234,460.375 L327.951172,457.021484 L346.8125,460.728516 L362.011719,475.347656 L362.640625,480.183594 L365.511719,484.296875 L366.204102,490.894531 L377.56543,503.505859 L379.540039,510.725586 L385.720703,521.604492 L388.621094,529.777344 L396.980469,538.37207 L404.15332,540.782227 L416.337891,542.764648 L425.307617,545.74707 L424.130859,542.773438 L424.816406,536.945312 L423.518555,529.200195 L420.923828,525.34668 L424.325195,520.148438 L422.22168,516.619141 L415.911133,516.119141 L417.087891,512.692383 L421.915039,510.958984 L424.083984,504.833984 L423.833984,502.842773 L428.161133,501.972656 L429.893555,499.433594 L429.143555,497.442383 L432.970703,494.959961 L441.19043,493.774414 L441.561523,491.40332 L438.902344,488.299805 L437.410156,485.029297 L448.668945,486.511719 L465.367187,477.615234 L470.194336,470.322266 L471.806641,467.71875 L469.944336,463.365234 L473.547852,461.132812 L474.047852,464.107422 L477.642578,467.572266 L483.460938,463.736328 L488.917969,463.236328 L496.265625,460.420898 L504.244141,464.0625 L570.147461,449.541992 L564.892578,445.890625 L580.582031,439.774414 L589.003906,441.072266 L587.039062,425.921875 L587.594727,376.78125 L612.026367,394.099609 L636.991211,364.936523 L658.944336,339.825195 L680.823242,311.393555 L686.288086,283.204102 L713.025391,248.864258 L707.457031,236.558594 L735.564453,229.053711 L755.753906,218.205078 L767.245117,199.976562 L751.305664,188.420898 L733.883789,175.688477 L711.579102,170.249023 L704.591797,171.241211 L694.019531,179.206055 L664.65332,197.749023 L662.615234,195.46875 L653.088867,196.088867 L648.124023,194.96875 L646.761719,191.744141 L651.831055,185.18457 L653.12793,178.05957 L656.304688,174.774414 L656.610352,169.270508 L662.920898,163.572266 L656.545898,150.463867 L655.619141,144.709961 L653.563477,143.033203 L642.999023,147.924805 L640.525391,154.791016 L636.568359,154.105469 L636.938477,149.334961 L642.636719,137.34375 L641.145508,119.766602 L631.481445,116.136719 L625.951172,111.670898 L618.964844,111.856445 L615.916992,114.283203 L612.145508,122.131836 L608.068359,128.636719 L605.520508,126.46875 L601.370117,132.842773 L596.292969,145.333984 L594.198242,155.351562 L598.098633,165.126953 L600.516602,176.070312 L600.896484,186.152344 L596.253906,194.444336 L594.818359,200.901367 L588.508789,203.078125 L585.59082,201.836914 L579.15918,193.052734 L577.797852,183.461914 L559.367188,180.061523 L520.735352,182.591797 L482.982422,218 L419.128906,231.65918 L338.442383,236.542969 L219.682617,276.963867 L204.405273,354.686523 L212.126953,411.710938 Z" id="Path-71" fill="url(#linearGradient-2)"></path>
                    <path d="M573.820312,135.733398 L574.319336,123.37207 L569.613281,112.677734 L554.47168,105.579102 L537.169922,101.62207 L539.273438,98.6484375 L546.751953,94.1357422 L554.212891,86.7304688 L561.320312,80.4208984 L565.90625,79.1230469 L565.600586,82.6533203 L561.820312,85.6269531 L560.087891,90.2050781 L561.99707,93.1142578 L570.983398,92.3085938 L575.931641,98.2558594 L587.160156,98.3212891 L597.362305,92.6230469 L600.160156,91.5664062 L607.710938,90.2050781 L612.65918,92.7431641 L613.594727,96.5800781 L620.089844,97.2558594 L625.900391,102.204102 L632.339844,102.389648 L635.322266,102.760742 L632.895508,104.4375 L625.15918,104.4375 L619.960938,108.337891 L610.128906,105.669922 L603.319336,106.041016 L598.853516,109.635742 L592.172852,112.053711 L589.69043,116.398438 L585.547852,111.950195 L581.824219,112.876953 L573.820312,135.733398 Z" id="Path-72" fill="url(#linearGradient-2)"></path>
                    <path d="M589.839844,441.207031 L586.875,427.681641 L588.46875,376.511719 L594.064453,374.898438 L602.236328,376.011719 L607.683594,381.21875 L607.943359,385.441406 L619.080078,383.587891 L621.304688,377.769531 L627.123047,361.796875 L634.458984,361.054688 L630.251953,343.96875 L650.673828,341.244141 L654.511719,330.960938 L668.113281,322.400391 L662.166016,303.978516 L663.294922,299.125 L673.802734,294.289063 L673.933594,289.082031 L680.751953,282.505859 L676.0625,271.480469 L678.044922,267.738281 L686.087891,267.738281 L689.681641,269.480469 L695.035156,262.291016 L703.949219,250.248047 L699.724609,250.748047 L689.052734,240.6875 L697.578125,230.402344 L700.896484,226.859375 L718.095703,223.876953 L748.189453,218.6875 L748.689453,213.462891 L753.267578,212.222656 L757.861328,206.773438 L755.878906,198.472656 L746.947266,198.601563 L737.439453,189.447266 L730.878906,189.818359 L734.845703,185.722656 L726.414062,174.662109 L711.328125,178.128906 L705.121094,178.128906 L705.621094,171.015625 L714.871094,161.212891 L711.146484,156.359375 L711.146484,148.333984 L725.232422,145.111328 L736.59375,144.369141 L743.896484,142.998047 L747.861328,138.515625 L752.568359,136.644531 L750.697266,120.6875 L762.558594,105.972656 L772.490234,101.748047 L789.076172,100.007813 L790.447266,117.6875 L799.195312,139.445313 L800.566406,149.505859 L791.894531,149.876953 L784.851562,152.488281 L777.291016,161.548828 L785.705078,160.808594 L786.59375,169.462891 L784.111328,176.556641 L781.626953,197.720703 L788.59375,202.074219 L797.636719,206.298828 L800.990234,209.039063 L801.490234,213.539063 L796.783203,223.470703 L787.816406,222.099609 L787.722656,228.529297 L794.541016,233.496094 L800.636719,232.996094 L794.558594,238.314453 L795.169922,243.003906 L791.205078,250.322266 L790.980469,258.236328 L784.9375,267.650391 L786.419922,251.822266 L779.34375,244.875 L774.861328,246.375 L775.730469,238.167969 L772.748047,225.849609 L768.748047,225.849609 L777.033203,251.365234 L767.84375,248.253906 L778.144531,254.830078 L778.773438,259.314453 L762.525391,250.271484 L779.740234,266.261719 L777.498047,268.261719 L768.533203,268.632813 L775.111328,273.486328 L789.230469,276.226563 L792.472656,281.451172 L792.341797,286.400391 L784.669922,293.476563 L779.076172,293.105469 L779.576172,297.458984 L786.283203,296.958984 L790.265625,291.623047 L795.619141,291.623047 L802.162109,301.390625 L795.03125,299.328125 L788.583984,308.388672 L782.134766,306.40625 L776.6875,309.130859 L784.78125,310.501953 L783.541016,313.242188 L780.074219,316.707031 L786.894531,315.837891 L790.617188,318.707031 L785.78125,322.673828 L773.033203,324.785156 L766.601562,335.199219 L764.490234,345.5 L758.154297,348.371094 L751.947266,352.335938 L747.257812,360.767578 L747.515625,366.345703 L741.826172,368.328125 L738.732422,374.275391 L730.447266,377.5 L730.576172,381.482422 L722.904297,382.724609 L727.853516,391.75 L715.361328,400.533203 L719.103516,400.533203 L716.25,404.998047 L713.896484,418.066406 L719.34375,433.023438 L725.792969,446.402344 L733.835938,463.341797 L739.894531,471.03125 L742.248047,479.074219 L732.076172,482.359375 L731.205078,491.03125 L724.292969,496.349609 L716.732422,491.771484 L705.464844,487.695312 L704.724609,480.859375 L701.871094,482.710937 L699.742188,460.695313 L663.603516,441.162109 L656.785156,448.738281 L642.019531,448.369141 L627.916016,439.583984 L618.984375,438.101563 L613.148438,442.195313 L605.994141,443.291016 L604.511719,439.583984 L599.304688,440.326172 L598.933594,435.101562 L595.580078,432.988281 L594.486328,441.015625 L589.839844,441.207031 Z" id="Path-73" fill="url(#linearGradient-3)"></path>
                    <path d="M483.121094,395.591797 L534.033203,392.626953 L537.273438,402.169922 L540.722656,410.808594 L536.126953,414.644531 L530.4375,425.169922 L530.197266,435.919922 L563.591797,436.402344 L564.962891,446.203125 L569.927734,449.203125 L561.384766,448.574219 L553.548828,450.556641 L559.626953,452.798828 L565.480469,452.667969 L565.109375,457.263672 L570.462891,452.927734 L573.816406,455.667969 L570.333984,458.875 L567.109375,462.970703 L575.763672,468.660156 L575.652344,475.382812 L572.298828,471.03125 L561.548828,468.306641 L557.083984,470.046875 L550.988281,470.046875 L548.876953,474.271484 L536.869141,469.082031 L533.626953,464.728516 L525.550781,462.503906 L515.265625,463.503906 L505.740234,463.763672 L497.179688,459.427734 L490.197266,461.539062 L489.197266,453.867188 L492.421875,448.160156 L495.015625,438.841797 L490.568359,424.462891 L482.283203,415.884766 L483.121094,395.591797 Z" id="Path-74" fill="url(#linearGradient-3)"></path>
                    <path d="M13.3037109,146.761719 L0.700195312,166.109375 L1.20019531,173.782227 L4.29492188,178.626953 L5.47167969,189.755859 L3.67480469,201.449219 L5.8984375,209.910156 L10.1699219,216.849609 L10.7265625,226.858398 L16.4892578,226.858398 L18.3417969,224.448242 L21.1953125,226.366211 L20.8251953,228.719727 L17.9160156,230.396484 L17.7861328,236.224609 L15.3125,235.482422 L11.9111328,239.939453 L14.6914062,243.414062 L19.7128906,253.116211 L18.4804688,257.507812 L14.8857422,260.602539 L29.5917969,292.842773 L29.0449219,300.588867 L27.1914063,306.890625 L33.3808594,309.049805 L36.6044922,312.394531 L40.8671875,311.764648 L43.90625,312.571289 L46.8154297,314.924805 L48.9746094,321.493164 L54.4794922,323.411133 L58.7509766,325.514648 L69.8154297,340.915039 L74.0302734,341.470703 L75.875,347.522461 L77.0517578,358.345703 L80.8964844,362.302734 L109.900391,367.797852 L114.995117,366.5 L120.37793,364.888672 L120.257813,372.743164 L170.548828,407.272461 L214.121094,412.285156 L232.728516,294.973633 L330.366211,304.546875 L347.538086,304.611328 L351.30957,242.005859 L468.566406,246.704102 L452.942383,233.407227 L507.75293,232.230469 L516.295898,228.329102 L520.631836,235.251953 L528.110352,231.423828 L526.748047,223.446289 L529.972656,220.02832 L525.580078,216.183594 L529.537109,212.830078 L534.467773,209.985352 L539.230469,206.149414 L541.566406,200.515625 L531.541016,185.230469 L578.046875,184.583984 L579.408203,181.036133 L577.18457,173.669922 L577.555664,161.123047 C577.555664,161.123047 577.925781,156.908203 577.925781,156.908203 C577.925781,156.908203 578.852539,150.597656 578.852539,150.597656 L577.740234,146.205078 L586.93457,122.476562 L579.577148,130.204102 L573.637695,139.673828 L575.120117,124.273438 L569.745117,112.40332 L554.866211,105.294922 L536.871094,101.338867 L533.258789,99.2265625 L527.301758,98.4853516 L525.810547,94.4550781 L524.012695,95.4462891 L515.228516,96.9296875 L506.000977,98.2910156 L510.733398,90.8291016 L540.332031,70.9326172 L538.460938,70.0625 L525.978516,71.1748047 L510.392578,70.3037109 L508.901367,67.9980469 L496.113281,63.7265625 L501.004883,59.2050781 L485.966797,59.5751953 L486.28125,63.5410156 L476.505859,61.8730469 L469.501953,58.1660156 L467.398438,53.3945312 L465.294922,47.1962891 L462.821289,47.1962891 L463.755859,52.5800781 L460.717773,53.015625 L431.925781,53.765625 L432.295898,69.0361328 L437.744141,79.4882812 L426.744141,117.517578 L347.691406,114.302734 L342.743164,121.047852 L350.711914,176.352539 L324.505859,175.490234 L22.1708984,137.34082 L13.3037109,146.761719 Z" id="Path-70" fill="url(#linearGradient-4)"></path>
                    <path d="M106.092773,7.24511719 L81.5546875,0.0078125 L76.0507813,2.23144531 L76.4863281,9.70996094 L71.4824219,15.59375 L72.84375,19.3173828 L76.1328125,20.0673828 L74.7060547,29.8349609 L71.9257813,33.1796875 L69.3222656,36.8945313 L64.7451172,38.0712891 L64.1894531,34.3212891 L63.7539063,32.5712891 L63.9394531,29.4121094 C63.9394531,29.4121094 72.625,20.4638672 70.9736328,20.4638672 C69.3222656,20.4638672 69.1201172,15.7480469 69.1201172,15.7480469 L63.71875,14.265625 L63.96875,11.46875 L58.7060547,12.765625 L47.5771484,2.37792969 L41.7675781,11.9121094 L45.8535156,23.6621094 L44.9267578,33.0019531 L47.2070313,35.7265625 L44.4824219,43.2695313 L43.9267578,48.8554688 L47.5947266,52.0146484 L45.8710938,51.8945313 L38.1982422,58.3984375 L38.6816406,65.7080078 L31.5732422,74.984375 L31.3886719,80.1904297 L32.1943359,83.2939453 L29.2851563,86.0830078 L27.1904297,91.4013672 L26.1992188,97.6640625 L24.4013672,100.517578 L21.3544922,103.685547 L19.5566406,105.668945 L21.7246094,109.004883 L15.4794922,111.728516 L12.8847656,122.366211 L15.2382813,123.171875 L12.6435547,127.137695 L11.6601563,133.521484 L14.8935547,138.245117 L11.9277344,139.439453 L13.0488281,144.53418 L13.5400391,148.723633 L19.0048828,151.938477 L17.7724609,147.788086 L20.0615234,145.314453 L19.8759766,141.904297 L27.1210938,141.28418 L79.5078125,154.813477 L119.984375,164.265625 L124.126953,164.886719 L117.010742,185.885742 L125.480469,188.294922 L122.700195,194.976563 L122.700195,199.182617 L120.226563,204.018555 L120.967773,211.579102 L118.148438,215.967773 L116.666016,226.058594 L125.634766,228.59668 L145.845703,244.859375 L153.388672,243.071289 L146.198242,279.605469 L159.301758,282.755859 L157.939453,286.22168 L161.098633,287.583984 L156.400391,293.643555 L160.792969,296.618164 L160.542969,299.036133 L164.314453,297.915039 L168.521484,296.803711 L171.366211,290.62207 L170.495117,285.916016 L170.124023,284.303711 L232.962891,295.126953 L241.923828,209.055664 L320.639648,217.025391 L324.967773,174.81543 L355.983398,176.113281 C355.983398,176.113281 355.427734,171.897461 355.427734,171.897461 C355.427734,171.897461 361.979492,171.647461 361.979492,171.647461 C361.979492,171.647461 362.719727,168.850586 361.172852,168.850586 C359.625977,168.850586 353.686523,168.293945 353.686523,168.293945 L355.483398,162.604492 L360.867188,162.048828 L360.867187,159.816406 L355.918945,158.333008 L359.504883,151.161133 L358.513672,145.454102 L353.936523,145.889648 L354.242188,142.850586 L355.354492,134.993164 C355.354492,134.993164 350.211914,132.825195 350.211914,132.825195 C350.211914,132.825195 349.091797,128.924805 349.091797,128.924805 L346.617188,124.524414 L345.44043,120.196289 L348.961914,113.886719 L403.19043,116.119141 C403.19043,116.119141 402.699219,123.170898 401.458008,123.170898 C400.216797,123.170898 395.518555,126.635742 395.518555,126.635742 L398.918945,132.639648 L400.095703,139.876953 L404.488281,143.462891 L412.151367,144.325195 L417.34082,141.294922 L420.56543,142.97168 L422.047852,132.52832 L427.969727,121.696289 L428.526367,116.981445 L433.90918,116.239258 L436.939453,112.959961 L438.180664,104.908203 L446.611328,102.360352 L444.68457,98.6455078 L444.25,85.8398438 L441.469727,81.0126953 L437.633789,79.4892578 L431.517578,68.5371094 L431.702148,54.2402344 L333.640625,49.2363281 L276.750977,43.2314453 L261.90625,41.9902344 L193.503906,29.3564453 L151.979492,20.765625 L106.092773,7.24511719 Z" id="Path-69" fill="url(#linearGradient-5)"></path>
                    <path d="M106.378906,6.6953125 L104.15625,12.625 L98.8027344,16.2207031 L95.7070312,23.3925781 L92.8535156,25.875 L92.1308594,31.3222656 L89.40625,35.9003906 L85.3105469,37.0117188 L82.7167969,40.4785156 L82.2167969,47.0546875 L81.1054688,53.7441406 L83.9570312,57.7109375 L88.1640625,57.2109375 L86.1816406,60.1933594 L90.3886719,62.7871094 L94.8535156,67.3828125 L92.484375,71.71875 L104.345703,76.4433594 L113.017578,76.0722656 L119.335938,76.0722656 L127.267578,79.296875 L135.328125,79.296875 L139.550781,79.796875 L145.386719,86.0625 L147.611328,92.1230469 L146,97.9765625 L150.240234,101.072266 L155.964844,102.183594 L166.861328,106.390625 L171.214844,105.148438 L173.568359,100.794922 L182.515625,98.8125 L183.886719,111.5625 L188.722656,113.933594 L191.09375,118.994141 L193.1875,121.976562 L192.6875,126.683594 L203.583984,129.666016 L210.644531,127.070312 L216.591797,126.199219 L221.669922,128.183594 L223.912109,133.90625 L226.394531,137.648438 L232.488281,139.259766 L237.470703,140.001953 L238.583984,130.570312 L243.419922,124.863281 L258.039062,124.494141 L284.445312,126.234375 L288.410156,112.873047 L288.78125,103.701172 L282.720703,103.701172 L285.574219,99.9765625 L289.539062,96.3828125 L287.185547,92.3984375 L290.185547,88.8984375 L290.927734,79.2089844 L280.384766,83.5449219 L276.53125,83.1757812 L275.789062,75.6328125 L278.902344,72.2792969 L272.953125,71.1660156 L266.892578,68.4433594 L267.652344,59.4003906 L266.78125,50.2109375 L275.212891,53.9335938 L277.453125,43.2792969 L254.712891,40.6679688 L224.265625,34.8496094 L201.972656,30.1425781 L180.697266,27.046875 L164.724609,22.8398438 L143.320312,17.7636719 L117.855469,11.3320312 L106.378906,6.6953125 Z" id="1-day" fill="url(#linearGradient-6)"></path>
                    <path d="M183.286133,98.34375 L177.338867,100.020508 L175.726562,101.761719 L173.920898,100.956055 L171.075195,104.912109 L166.860352,106.338867 L169.157227,111.481445 L167.610352,115.076172 L165.5625,113.520508 L163.580078,113.520508 L163.580078,115.381836 L159.856445,116.623047 L160.041016,120.597656 L159.606445,125.907227 L161.467773,127.333984 L160.049805,130.920898 L162.347656,131.605469 L163.644531,128.631836 L166.860352,132.782227 L173.662109,133.09668 L176.821289,131.235352 L177.8125,128.567383 L180.044922,131.541016 L180.110352,134.950195 L183.269531,136.433594 L185.251953,134.515625 L187.299805,132.467773 L186.799805,129.605469 L192.24707,130.967773 L192.24707,133.135742 L195.712891,131.773438 L195.648438,127.751953 L191.730469,125.640625 L194.204102,122.489258 L189.99707,115.920898 L187.337891,112.938477 L184.178711,111.076172 L183.286133,98.34375 Z" id="3-day" fill="url(#linearGradient-4)"></path>
                </g>
                <g id="usa-35713" transform="translate(0.000000, 1.000000)" stroke="#000000" sketch:type="MSShapeGroup">
                    <g id="HAWAII" transform="translate(301.000000, 26.000000)" stroke-width="0.75">
                        <path d="M58.6963889,485.370222 L61.3213294,482.746588 L58.6963889,479.327912 L52.0147222,479.327912 L51.378373,482.746588 L57.980496,484.654686 L58.6963889,485.370222" id="Shape" fill="url(#linearGradient-7)"></path>
                        <path d="M99.661369,497.295834 L92.3433532,494.592695 L86.3775794,491.969061 L88.3661706,497.852362 L92.3433532,502.543103 L94.9682937,506.518307 L99.661369,503.894672 L100.218175,499.919468 L98.9454762,498.567899 L99.661369,497.295834" id="Shape" fill="url(#linearGradient-7)"></path>
                        <path d="M111.513373,514.468714 L118.115496,515.820284 L120.104087,519.079951 L124.001726,522.975651 L128.694802,525.042757 L127.978909,529.653993 L121.376786,532.993164 L117.399603,536.252831 L112.865615,535.616799 L110.79748,539.592003 L106.820298,540.228035 L103.559008,534.901262 L102.922659,525.678789 L100.934067,522.419122 L103.559008,515.820284 L106.820298,513.117145 L111.513373,514.468714" id="Shape" fill="url(#linearGradient-7)"></path>
                        <path d="M1.10678571,476.704278 L0.470436508,477.419815" id="Shape" fill="#D8D8D8"></path>
                        <path d="M26.2425794,473.444611 L29.5834127,470.105439 L28.2311706,467.481805 L24.8903373,466.130236 L18.2882143,467.481805 L15.6632738,471.457009 L20.3563492,472.093041 L20.9131548,474.080643 L25.6062302,473.444611 L28.8675198,473.444611 L26.2425794,473.444611" id="Shape" fill="url(#linearGradient-7)"></path>
                        <path d="M11.6860913,472.729074 L7.70890873,475.352709" id="Shape" fill="#D8D8D8"></path>
                        <path d="M83.036746,493.32063 L75.8778175,489.345426" id="Shape" fill="#D8D8D8"></path>
                    </g>
                    <g id="ALASKA" transform="translate(0.000000, 408.000000)" stroke-width="0.75">
                        <path d="M201.484067,12.6560706 L204.109008,39.7669608 L205.46125,73.5561934 L206.177143,89.4570088 L212.779266,90.0135373 L220.017738,94.7042778 L222.642679,98.6794817 L223.994921,98.6794817 L226.619861,93.9887412 L230.597044,96.0558472 L230.597044,97.963945 L227.335754,98.6794817 L225.267619,100.031051 L225.983512,101.939149 L227.335754,102.654686 L229.960694,101.303116 L231.869742,99.3155143 L233.937877,97.963945 L237.91506,100.031051 L239.187758,103.290718 L241.892242,105.27832 L245.789881,107.981459 L248.494365,111.877158 L249.051171,114.580297 L256.369187,115.852362 L257.721429,125.790372 L255.096488,124.438803 L251.119306,119.112029 L249.051171,119.112029 L247.778472,115.136826 L245.153532,114.580297 L244.517183,113.86476 L243.16494,109.253524 L241.176349,107.265922 L238.471865,105.914353 L236.562817,109.889557 L237.199167,112.513191 L239.824107,113.228728 L241.892242,114.580297 L239.187758,119.112029 L237.199167,118.555501 L235.290119,115.136826 L231.869742,111.877158 L231.312937,107.265922 L227.972103,104.006255 L222.642679,101.939149 L220.017738,100.031051 L216.040556,97.3279124 L207.529385,93.9887412 L201.484067,93.3527085 L194.245595,93.3527085 L191.620655,92.7166759 L186.927579,86.0383335 L183.745833,84.7662682 L179.768651,85.4818049 L179.768651,88.1054395 L180.325456,92.0806433 L179.052758,92.7166759 L175.075575,92.7166759 L169.825694,96.6918798 L167.12121,98.6794817 L163.859921,97.963945 L164.49627,94.7042778 L167.837103,92.7166759 L167.837103,88.7414721 L168.473452,84.1302356 L167.12121,83.4146989 L162.587222,88.7414721 L158.61004,92.7166759 L155.985099,96.6918798 L155.269206,97.963945 L157.894147,99.3155143 L157.257798,101.303116 L152.007917,105.27832 L148.030734,109.253524 L141.428611,113.228728 L134.826488,115.852362 L129.497063,118.555501 L125.519881,120.463599 L123.53129,117.203932 L125.519881,114.580297 L129.497063,112.513191 L135.462837,108.537987 L138.087778,105.27832 L139.360476,101.303116 L140.076369,98.6794817 L136.735536,97.963945 L137.451429,95.3403105 L134.110595,96.0558472 L132.201548,93.9887412 L129.497063,94.7042778 L127.508472,95.3403105 L125.519881,99.3155143 L122.179048,93.9887412 L124.247183,89.4570088 L122.179048,82.7786663 L118.281409,84.7662682 L115.020119,78.1674299 L115.020119,72.2046241 L112.315635,66.2418183 L118.281409,64.890249 L117.64506,60.9150452 L120.906349,58.2914107 L133.474246,59.64298 L135.462837,58.2914107 L135.462837,49.7049704 L134.826488,48.4329051 L128.781171,48.9894337 L128.224365,45.7297665 L123.53129,48.4329051 L123.53129,45.0937339 L116.929167,43.7421646 L117.64506,40.4824974 L119.554107,37.8588629 L116.929167,34.4401876 L120.906349,33.8836591 L123.53129,32.5320898 L126.872123,32.5320898 L128.781171,30.5444878 L130.849306,32.5320898 L129.497063,35.1557243 L128.781171,37.8588629 L133.474246,37.1433262 L138.087778,35.7917569 L140.712718,31.8165531 L137.451429,31.1805205 L132.758353,24.5816821 L129.497063,19.334413 L129.497063,14.6436725 L132.758353,13.2921032 L136.735536,11.3840053 L140.076369,12.6560706 L145.405794,3.43359764 L151.292024,4.06963025 L156.541905,2.71806095 L161.23498,0.809963101 L165.848512,4.06963025 L170.462044,6.05723217 L177.700516,8.04483409 L195.597837,12.0200379 L199.57502,13.2921032 L200.927262,17.267307 L201.484067,12.6560706" id="Shape" fill="url(#linearGradient-3)"></path>
                        <path d="M89.1684325,129.129543 L91.793373,125.790372 L90.5206746,121.815168 L87.8161905,123.087233 L85.9071429,127.777974 L82.5663095,127.777974" id="Shape" fill="url(#linearGradient-3)"></path>
                        <path d="M107.065754,121.179135 L104.440813,123.087233" id="Shape"></path>
                        <path d="M162.587222,105.27832 L162.587222,110.605093 L159.246389,113.228728 L153.280615,114.580297 L152.007917,111.877158 L154.632857,109.889557 L158.61004,108.537987 L159.882738,104.562783 L161.871329,104.562783" id="Shape" fill="url(#linearGradient-3)"></path>
                        <path d="M4.61353175,91.3651066 L0,86.0383335" id="Shape"></path>
                        <path d="M42.3172222,123.087233 L40.9649802,123.80277" id="Shape"></path>
                        <path d="M52.8965278,127.062437 L49.5556944,125.154339" id="Shape"></path>
                        <path d="M31.7379167,118.555501 L27.0448413,114.580297" id="Shape"></path>
                        <path d="M19.806369,109.889557 L15.1928373,107.265922 L15.8291865,107.265922" id="Shape"></path>
                        <path d="M21.1586111,115.852362 L19.0904762,113.86476" id="Shape"></path>
                    </g>
                    <g id="PUERTO-RICO" transform="translate(657.000000, 532.000000)" fill="url(#linearGradient-1)">
                        <path d="M28.0292969,24.9921875 L26.6757812,16.8027344 L25.5644531,11.8183594 L28.9179688,2.38867187 L33.3828125,4 L39.7011719,4 L54.0644531,2.25976562 L70.6484375,1.88867188 L74.8730469,0.646484375 L78.5976562,2.75976562 L84.3046875,5.2421875 L83.0625,9.85351562 L77.9863281,17.8183594 L69.0546875,20.0429688 L64.8476562,22.15625 L49.5214844,21.0429688 L41.9609375,22.15625 L38.4960938,25.6210938 L28.0292969,24.9921875 Z" id="Path-77"></path>
                        <path d="M87.1308594,14.3710938 L90.3554688,10.40625 L98.1738281,10.5351562 C98.1738281,10.5351562 97.7304688,13.2753906 95.1914062,13.2753906 C92.6523438,13.2753906 87.1308594,14.3710938 87.1308594,14.3710938 Z" id="Path-78"></path>
                        <path d="M97.3378906,6.21679688 L93.484375,2.75 L100.544922,2.75 L97.3378906,6.21679688 Z" id="Path-79"></path>
                        <path d="M3.875,23.7851562 L0.392578125,22.0429688 L5.98828125,19.6894531 L3.875,23.7851562 Z" id="Path-80"></path>
                    </g>
                    <path d="M767.357599,430.19656 L734.983333,428.924495 L720.506389,428.924495 L721.779087,439.498537 L715.336052,439.975561 L715.336052,434.728292 L711.915675,432.899698 L710.563433,440.53209 L705.234008,440.214073 L703.32496,425.664827 L703.881766,346.240255 L746.914881,342.265051 L762.744067,396.486831 L760.119127,407.140377 L764.09631,413.739216 L762.744067,422.246152 L766.72125,428.288462 L767.357599,430.19656" id="Shape" stroke-width="0.75"></path>
                    <path d="M244.914901,317.221267 L243.960377,321.116966 L247.30121,325.09217 L248.653452,330.975472 L249.926151,334.314643 L247.93756,339.641416 L240.699087,344.252653 L241.335437,346.240255 L238.074147,350.851491 L237.358254,354.190662 L237.358254,363.413135 L237.358254,371.999576 L261.141806,388.933944 L273.073353,396.884352 L287.550298,406.742857 L331.140218,411.592606 L349.435258,293.68806 L262.97131,279.297822 L259.232758,298.617313 L256.607817,301.240947 L251.914742,297.345247 L247.93756,300.604915 L246.585317,316.426226 L244.914901,317.221267" id="Shape" stroke-width="0.75"></path>
                    <path d="M673.496091,328.351837 L665.541726,329.703407 L662.280437,327.000268 L664.269028,323.740601 L666.257619,316.426226 L590.213889,319.765397 L592.918373,381.301553 L597.531905,381.460561 L599.520496,393.863197 L651.780675,391.875595 L652.33748,389.887993 L651.780675,382.573618 L652.33748,375.338747 L657.030556,367.388339 L662.916786,360.073964 L660.291845,353.475126 L665.541726,349.499922 L666.814425,345.445214 L671.587044,340.992986 L674.211984,330.975472 L673.496091,328.351837" id="Shape" stroke-width="0.75"></path>
                    <path d="M237.358254,363.413135 L237.358254,354.190662 L238.074147,350.851491 L241.335437,346.240255 L240.699087,344.252653 L247.93756,339.641416 L249.926151,334.314643 L248.653452,330.975472 L247.30121,325.09217 L243.960377,321.116966 L246.505774,316.10821 L204.347639,254.254038 L179.211845,213.229934 L195.279663,153.28386 L131.565198,136.985524 L128.701627,138.893622 L130.053869,142.868826 L130.053869,145.492461 L121.383611,160.041707 L118.122321,165.36848 L118.122321,173.318888 L121.383611,177.294091 L122.099504,189.776231 L120.826806,200.350274 L122.735853,209.016218 L126.713036,215.615056 L127.428929,226.189099 L134.031052,226.189099 L134.667401,223.565464 L138.008234,224.917033 L138.008234,227.540668 L135.30375,228.892237 L134.667401,232.151904 L134.667401,234.775539 L131.962917,234.139506 L128.701627,238.750743 L132.67881,243.441483 L136.655992,252.663956 L134.667401,256.63916 L131.962917,259.262795 L136.655992,271.188406 L139.280933,276.515179 L142.542222,285.022115 L145.883056,292.336491 L145.883056,299.014833 L144.610357,304.262102 L143.894464,305.613671 L149.860238,307.521769 L153.121528,311.496973 L157.09871,310.86094 L160.439544,311.496973 L163.700833,314.120608 L165.053075,317.539283 L166.325774,321.434983 L171.655198,322.071015 L176.26873,324.774154 L178.257321,327.397788 L181.598155,332.088529 L184.223095,335.984229 L186.848036,339.959433 L190.825218,340.595465 L191.461567,341.947034 L192.81381,345.922238 L193.450159,352.521077 L194.086508,357.768346 L198.06369,361.187021 L202.040873,361.74355 L206.018056,362.459086 L217.87006,365.162225 L226.540317,366.43429 L232.426548,365.718753 L237.358254,363.413135" id="Shape" stroke-width="0.75"></path>
                    <path d="M437.251448,216.569105 L469.387083,219.272244 L464.614464,304.103094 L446.87623,303.626069 L349.673889,293.926572 L359.139583,207.982665 L437.251448,216.569105 Z" id="Shape" stroke-width="0.75"></path>
                    <path d="M945.137659,162.983358 L945.137659,151.773283 L917.774643,161.154764 L917.615556,178.645661 L916.740575,191.286809 L920.001865,181.825824 L922.706349,177.294091 L932.569762,169.343684 L938.535536,167.992114 L944.421766,166.720049 L945.137659,162.983358" id="Shape" stroke-width="0.75"></path>
                    <path d="M917.217837,232.310913 L911.729325,232.867441 L904.729484,228.017692 L903.138611,221.418854 L899.559147,210.526795 L892.082044,212.355389 L898.206905,237.796694 L912.127044,237.796694 L917.217837,232.310913" id="Shape" stroke-width="0.75"></path>
                    <path d="M758.050992,447.130928 L750.176171,443.791757 L742.937698,439.18052 L735.619683,438.544488 L727.665317,443.155724 L722.176806,443.155724 L721.779087,439.498537 L720.506389,428.924495 L734.983333,428.924495 L767.198512,430.19656 L767.755317,434.648788 L817.470099,434.410276 L818.981429,436.159366 L821.765456,436.159366 L820.174583,420.974087 L832.662937,422.564168 L835.446964,431.866145 L842.049087,443.791757 L846.02627,453.093734 L856.605575,470.266614 L860.582758,480.204624 L868.457579,492.130236 L873.071111,498.729074 L873.787004,515.265922 L871.718869,523.852362 L870.446171,527.827566 L869.809821,531.087233 L863.207698,535.777974 L858.514623,535.777974 L855.253333,533.154339 L853.264742,529.179135 L849.28756,525.203932 L843.401329,519.877158 L836.799206,515.981459 L836.799206,511.290718 L833.458373,507.315514 L833.458373,501.352709 L828.844841,502.704278 L823.515417,498.013537 L820.174583,494.038333 L820.890476,490.06313 L822.242718,486.16743 L821.526825,480.204624 L818.901885,481.556193 L816.913294,484.815861 L816.276944,474.241818 L816.913294,466.291411 L815.640595,459.692572 L808.322579,455.081336 L801.084107,450.390595 L795.118333,447.130928 L787.879861,443.791757 L779.925496,440.53209 L777.300556,444.507294 L773.323373,448.482497 L766.72125,447.766961 L758.050992,447.130928" id="Shape" stroke-width="0.75"></path>
                    <path d="M830.753889,387.900391 L827.492599,383.289154 L822.242718,375.338747 L813.015655,363.413135 L805.697639,362.777103 L796.391032,350.851491 L793.129742,347.591824 L788.51621,346.876287 L785.254921,343.61662 L787.879861,337.57431 L766.72125,340.277449 L746.914881,342.265051 L762.744067,396.486831 L760.119127,407.140377 L764.09631,413.739216 L762.823611,422.166648 L766.403075,426.857389 L768.073492,435.125813 L768.789385,434.648788 L817.549643,434.410276 L819.379147,436.318374 L821.606369,436.318374 L820.174583,420.974087 L832.822024,422.643672 L830.753889,417.316899 L832.106131,404.119223 L834.731071,402.767653 L836.083313,400.144019 L832.106131,399.507986 L844.753571,390.285513 L837.196925,386.628326 L830.753889,387.900391" id="Shape" stroke-width="0.75"></path>
                    <path d="M338.299147,128.478588 L333.208353,125.934458 L328.594821,125.934458 L323.98129,127.286027 L318.015516,128.558092 L308.708909,127.286027 L310.061151,121.959254 L306.083968,117.98405 L304.731726,112.736781 L300.834087,108.125544 L301.470437,104.150341 L300.197738,96.8359656 L298.129603,98.1875349 L294.868313,98.9030716 L292.243373,100.811169 L291.52748,96.8359656 L292.879722,86.9774601 L297.572798,76.9599464 L295.504663,75.0518485 L293.595615,74.3363118 L290.254782,71.0766447 L288.90254,65.8293756 L285.64125,60.5026025 L281.664067,56.5273986 L280.391369,49.9285603 L280.948175,38.0029487 L281.823155,22.4996537 L270.368869,20.1145314 L264.403095,48.656495 L260.505456,65.5908634 L257.005536,78.7885401 L237.358254,162.983358 L283.25494,174.511449 L329.390258,182.859377 L338.299147,128.478588" id="Shape" stroke-width="0.75"></path>
                    <path d="M705.234008,282.716497 L700.620476,286.055668 L699.904583,290.666905 L696.006944,292.654507 L695.370595,296.629711 L690.438889,301.081939 L683.757222,306.647224 L680.098214,303.944086 L674.848333,299.253345 L676.121032,297.901776 L677.473274,293.926572 L671.587044,289.39484 L666.257619,285.419636 L661.007738,278.820797 L661.007738,273.494024 L662.916786,269.51882 L662.280437,264.82808 L654.405615,264.271551 L647.087599,256.321144 L642.474067,250.278834 L640.485476,243.679996 L637.940079,234.616531 L645.099008,230.482319 L643.82631,221.895878 L646.45125,219.272244 L642.474067,214.581503 L645.735357,211.957869 L651.780675,209.25473 L655.678313,204.722998 L658.382798,199.396225 L655.678313,195.421021 L651.064782,188.822182 L648.360298,184.131442 L694.654702,182.859377 L696.006944,191.843337 L701.256825,201.06581 L702.609067,204.007461 L703.881766,223.803976 L704.597659,241.771898 L705.234008,252.34594 L701.972718,258.944778 L703.32496,262.919982 L704.597659,267.531219 L701.256825,274.130057 L706.506706,274.845594 L709.21119,281.444432 L705.234008,282.716497" id="Shape" stroke-width="0.75"></path>
                    <path d="M701.256825,201.06581 L705.234008,202.41738 L711.199782,200.350274 L713.188373,194.466972 L742.937698,195.421021 L752.164762,247.019167 L752.164762,252.981972 L748.187579,255.605607 L744.28994,261.568413 L741.585456,265.543617 L736.971925,266.179649 L735.619683,276.117659 L731.006151,278.820797 L727.665317,275.402122 L721.779087,278.105261 L719.154147,280.728895 L709.21119,281.444432 L706.506706,274.845594 L701.256825,274.130057 L704.597659,267.531219 L703.32496,262.919982 L701.972718,258.944778 L705.234008,252.34594 L704.597659,241.771898 L703.881766,223.803976 L702.609067,204.007461 L701.256825,201.06581" id="Shape" stroke-width="0.75"></path>
                    <path d="M567.782579,226.507115 L563.169048,196.77259 L558.555516,188.106646 L556.566925,168.946163 L559.430496,166.958561 L639.292321,168.310131 L647.087599,181.507807 L651.064782,188.822182 L655.678313,195.421021 L658.382798,199.396225 L655.678313,204.722998 L651.780675,209.25473 L645.735357,211.957869 L642.474067,214.581503 L646.45125,219.272244 L643.82631,221.895878 L645.099008,230.482319 L637.701448,234.696035 L636.508294,232.469921 L633.247004,227.77918 L624.576746,230.482319 L569.771171,232.469921 L567.782579,226.507115" id="Shape" stroke-width="0.75"></path>
                    <path d="M589.895714,262.68147 L588.304841,261.568413 L583.05496,251.630403 L586.077619,249.006769 L585.679901,245.747102 L468.034841,241.056361 L464.694008,303.944086 L589.895714,308.475818 L590.213889,265.941137 L589.895714,262.68147" id="Shape" stroke-width="0.75"></path>
                    <path d="M778.652798,299.968882 L783.902679,295.278141 L789.788909,293.370044 L790.504802,288.679303 L797.743274,282.080465 L794.481984,273.494024 L790.345714,262.045437 L787.163968,258.944778 L780.561845,257.593209 L772.050675,259.580811 L760.119127,256.877672 L755.426052,252.981972 L752.164762,252.981972 L748.187579,255.605607 L744.28994,261.568413 L741.585456,265.543617 L736.971925,266.179649 L735.619683,276.117659 L731.006151,278.820797 L727.665317,275.402122 L721.779087,278.105261 L719.154147,280.728895 L717.086012,280.728895 L705.234008,282.716497 L700.620476,286.055668 L699.904583,290.666905 L696.006944,292.654507 L695.370595,296.629711 L687.41623,303.705574 L683.91631,306.56772 L680.495933,313.166559 L690.041171,316.426226 L698.631885,311.894493 L705.949901,311.178957 L731.6425,307.91929 L777.300556,302.592516 L778.652798,299.968882" id="Shape" stroke-width="0.75"></path>
                    <path d="M682.166349,444.745806 L680.098214,434.8873 L676.836925,434.8873 L647.087599,434.8873 L645.735357,425.664827 L650.428433,418.986485 L651.780675,414.375248 L658.382798,409.764012 L655.041964,403.165174 L651.780675,391.875595 L599.520496,393.863197 L600.236389,399.18997 L600.236389,415.011281 L606.838512,422.961689 L610.099802,430.912096 L611.3725,438.862504 L609.463452,446.097375 L605.48627,452.696214 L605.48627,457.386954 L606.122619,461.998191 L613.440635,459.05654 L620.679107,463.031744 L631.178869,464.383313 L640.485476,463.031744 L649.71254,462.316207 L649.71254,466.291411 L656.314663,468.915045 L664.269028,474.241818 L666.257619,469.630582 L672.143849,470.266614 L674.848333,468.279013 L678.189167,467.64298 L687.41623,470.266614 L691.393413,474.957355 L694.018353,472.890249 L695.370595,468.915045 L692.745655,468.279013 L688.768472,464.383313 L684.075397,461.680174 L686.700337,457.70497 L690.041171,455.717368 L690.041171,451.106132 L686.143532,452.457701 L682.723155,458.341003 L681.450456,455.717368 L682.723155,451.106132 L680.098214,449.834067 L676.836925,451.742165 L669.518909,449.834067 L678.189167,447.130928 L686.143532,448.482497 L682.166349,444.745806" id="Shape" stroke-width="0.75"></path>
                    <path d="M953.092024,123.310823 L937.819643,83.6382888 L939.171885,81.3326706 L941.796825,72.7462303 L943.149067,62.1721881 L941.796825,48.2589746 L947.046706,43.6477382 L946.489901,29.0984921 L951.739782,26.4748576 L957.626012,31.7221267 L964.228135,27.1108902 L968.92121,25.7593209 L974.250635,33.073696 L977.511925,45.6353401 L978.148274,54.857813 L978.784623,61.4566514 L981.409563,64.7958226 L986.738988,62.1721881 L988.727579,66.7834245 L994.057004,73.3822629 L998.034187,74.7338322 L999.943234,77.3574668 L996.681944,79.9811013 L990.716171,79.9811013 L982.125456,87.931509 L980.852758,84.6718418 L979.500516,88.6470457 L974.250635,87.931509 L974.80744,95.2458841 L970.273452,99.8571205 L962.319087,108.443561 L957.069206,116.393968 L955.001071,127.604043 L953.092024,123.310823" id="Shape" stroke-width="0.75"></path>
                    <path d="M875.775595,229.448766 L879.752778,236.842645 L878.480079,248.688752 L894.229722,259.262795 L895.502421,257.990729 L894.229722,254.651558 L886.275357,247.973216 L893.593373,250.676354 L888.900298,246.065118 L888.900298,240.102312 L887.627599,232.151904 L886.99125,224.917033 L888.900298,224.917033 L890.25254,232.867441 L892.241131,238.11471 L891.604782,244.713549 L895.502421,243.441483 L898.206905,246.065118 L902.820437,251.391891 L902.184087,256.63916 L901.547738,267.213202 L904.172679,264.589568 L907.433968,257.275193 L908.149861,249.324785 L912.127044,241.374377 L912.127044,237.796694 L898.206905,237.796694 L891.684325,212.275885 L836.00377,223.565464 L836.083313,233.82149 L857.162381,223.565464 L858.912341,226.825131 L866.309901,232.0724 L871.162063,233.82149 L875.775595,229.448766" id="Shape" stroke-width="0.75"></path>
                    <path d="M955.001071,135.236435 L929.865278,137.224037 L917.376925,138.416598 L918.013274,161.07526 L945.137659,151.773283 L950.785258,153.522372 L953.728373,156.066503 L960.330496,158.769641 L962.955437,156.066503 L968.205317,156.066503 L974.250635,153.442868 L974.250635,150.103697 L969.55756,144.776924 L972.1825,148.195599 L970.909802,152.170803 L965.580377,151.455266 L963.671329,148.752128 L958.978254,143.504859 L956.353313,135.554451 L955.001071,135.236435" id="Shape" stroke-width="0.75"></path>
                    <path d="M654.405615,100.811169 L672.143849,104.786373 L686.700337,111.385212 L691.393413,123.310823 L690.67752,135.554451 L694.018353,127.604043 L696.643294,119.097107 L699.347778,111.782732 L702.609067,111.146699 L706.506706,115.678432 L708.574841,111.146699 L715.813313,109.079593 L720.506389,105.10439 L727.108512,104.547861 L736.415119,108.602569 L741.983175,104.070837 L750.176171,103.832324 L752.801111,101.844722 L748.823929,101.129186 L743.574048,101.129186 L739.596865,97.8695186 L736.971925,95.8819167 L730.369802,95.2458841 L729.733452,91.2706802 L725.75627,89.2830783 L723.688135,89.2830783 L716.529206,90.5551435 L713.188373,91.9067128 L708.574841,93.8943147 L703.881766,96.5974534 L699.347778,96.5974534 L692.745655,96.5974534 L688.052579,91.2706802 L685.427639,91.2706802 L679.461865,91.9067128 L677.473274,89.2830783 L678.825516,84.6718418 L682.723155,82.0482073 L682.723155,78.0730035 L678.189167,79.9811013 L670.234802,86.5799397 L663.632679,93.2582821 L657.030556,97.1539819 L650.428433,98.5055512 L654.405615,100.811169" id="Shape" stroke-width="0.75"></path>
                    <path d="M742.858155,195.341517 L713.188373,194.466972 L717.086012,185.244499 L717.086012,176.578555 L714.461071,164.016911 L710.483889,154.078901 L713.188373,143.504859 L717.801905,132.294784 L722.415437,125.695945 L724.404028,127.604043 L729.01756,121.005205 L732.358393,113.770334 L736.335575,110.431163 L742.937698,111.146699 L748.187579,115.121903 L754.869246,117.745538 L758.050992,119.097107 L758.766885,128.31958 L759.403234,136.269988 L756.778294,142.153289 L754.153353,148.195599 L754.153353,153.442868 L757.494187,154.078901 L758.766885,150.819234 L759.403234,146.84403 L764.09631,144.220395 L769.98254,142.153289 L772.050675,143.504859 L773.323373,149.467664 L775.948313,154.078901 L777.936905,158.054105 L779.925496,162.744845 L773.959722,168.628147 L772.60748,174.590953 L769.34619,177.294091 L768.073492,184.528962 L764.09631,190.491768 L764.732659,194.466972 L760.437302,193.274411 L742.858155,195.341517" id="Shape" stroke-width="0.75"></path>
                    <path d="M559.191865,164.334927 L558.555516,132.533296 L553.941984,127.286027 L554.578333,121.323221 L557.919167,116.075952 L556.566925,109.477114 L554.578333,96.8359656 L553.226091,85.6258908 L553.941984,78.3115157 L548.692103,68.4530102 L548.692103,53.1882274 L560.862282,52.9497152 L578.04371,52.2341785 L580.032302,51.5981459 L580.032302,45.6353401 L582.020893,45.6353401 L584.009484,52.2341785 L586.634425,57.4814476 L593.236548,60.8206188 L598.486429,62.1721881 L603.179504,63.5237574 L602.463611,58.6740087 L617.417817,58.6740087 L613.440635,62.8082207 L619.326865,64.7958226 L625.292639,66.7834245 L627.28123,69.4070591 L646.45125,70.1225958 L655.041964,69.4070591 L657.030556,70.1225958 L644.462659,78.0730035 L632.531111,86.5799397 L627.28123,90.5551435 L622.667698,97.5515023 L623.304048,108.125544 L624.01994,110.033642 L617.974623,115.360415 L614.713333,117.98405 L614.713333,122.674791 L615.349683,128.001564 L616.701925,131.261231 L615.349683,141.835273 L617.974623,145.810477 L629.269821,149.149648 L633.247004,151.773283 L635.871944,157.100056 L639.133234,159.008154 L639.133234,166.322529 L639.849127,168.310131 L559.191865,166.958561 L559.191865,164.334927" id="Shape" stroke-width="0.75"></path>
                    <path d="M665.541726,349.499922 L660.291845,353.475126 L662.916786,360.073964 L657.030556,367.388339 L652.33748,375.338747 L651.780675,382.573618 L652.019306,392.034603 L655.041964,403.165174 L658.382798,409.764012 L651.780675,414.375248 L650.428433,418.986485 L645.735357,425.664827 L647.087599,434.8873 L676.836925,434.8873 L680.098214,434.8873 L682.166349,444.745806 L688.370754,441.883659 L697.359187,439.18052 L705.234008,440.214073 L703.32496,425.664827 L703.32496,346.876287 L692.745655,346.876287 L666.257619,347.591824 L665.541726,349.499922" id="Shape" stroke-width="0.75"></path>
                    <path d="M678.189167,317.141763 L673.496091,322.468536 L673.496091,328.351837 L665.541726,329.703407 L662.280437,327.000268 L664.269028,323.740601 L666.257619,316.426226 L590.213889,319.765397 L589.895714,262.283949 L588.304841,261.568413 L583.05496,251.789411 L586.077619,248.847761 L585.520813,245.826606 L569.771171,232.469921 L624.576746,230.482319 L633.247004,227.77918 L637.701448,234.696035 L640.485476,243.679996 L642.474067,250.278834 L647.087599,256.321144 L654.405615,264.271551 L662.280437,264.82808 L662.916786,269.51882 L661.007738,273.494024 L661.007738,278.820797 L666.257619,285.419636 L671.587044,289.39484 L677.473274,293.926572 L676.121032,297.901776 L674.848333,299.253345 L680.575476,304.182598 L683.836766,306.726728 L678.189167,317.141763" id="Shape" stroke-width="0.75"></path>
                    <path d="M280.948175,38.0029487 L280.391369,49.9285603 L281.664067,56.5273986 L285.64125,60.5026025 L288.90254,65.8293756 L290.254782,71.0766447 L293.595615,74.3363118 L295.504663,75.0518485 L297.572798,76.9599464 L292.879722,86.9774601 L291.52748,96.8359656 L292.243373,100.811169 L294.868313,98.9030716 L298.129603,98.1875349 L300.197738,96.8359656 L301.470437,104.150341 L300.834087,108.125544 L304.731726,112.736781 L306.083968,117.98405 L310.061151,121.959254 L308.708909,127.286027 L318.015516,128.558092 L323.98129,127.286027 L328.594821,125.934458 L333.208353,125.934458 L338.537778,128.558092 L339.810476,119.335619 L444.330833,131.579247 L451.092044,48.0999665 L412.195198,44.2837708 L381.173175,41.0241036 L353.41244,37.0488998 L325.651706,31.00659 L302.504504,27.1108902 L282.061786,22.4996537 L280.948175,38.0029487" id="Shape" stroke-width="0.75"></path>
                    <path d="M563.169048,196.77259 L567.782579,226.745627 L570.009802,232.549425 L585.282183,245.747102 L577.884623,245.349581 L468.034841,241.056361 L469.387083,219.272244 L437.649167,216.728113 L440.99,174.352441 L526.18125,178.24814 L534.135615,184.131442 L538.112798,184.131442 L540.021845,181.507807 L545.271726,182.859377 L553.941984,188.822182 L559.191865,192.08185 L563.169048,196.77259" id="Shape" stroke-width="0.75"></path>
                    <path d="M241.096806,308.157802 L204.347639,254.254038 L179.211845,213.229934 L195.200119,153.363364 L283.01631,174.272936 L259.232758,298.617313 L256.607817,301.240947 L251.914742,297.345247 L247.93756,300.604915 L246.585317,316.426226 L241.096806,308.157802" id="Shape" stroke-width="0.75"></path>
                    <path d="M955.001071,135.236435 L954.921528,128.001564 L937.819643,83.6382888 L929.865278,86.0234111 L932.569762,91.2706802 L931.21752,102.162739 L927.95623,109.477114 L927.95623,120.051156 L929.865278,130.625198 L929.865278,137.144533 L955.001071,135.236435" id="Shape" stroke-width="0.75"></path>
                    <path d="M902.820437,219.908277 L899.479603,212.673406 L902.820437,208.698202 L905.524921,201.383827 L898.206905,198.680688 L898.206905,193.433419 L900.831845,178.24814 L898.922798,175.624506 L914.751984,182.223344 L917.376925,184.528962 L916.661032,192.47937 L921.354107,195.103005 L921.354107,205.041014 L918.729167,212.991422 L912.127044,222.849927 L902.820437,221.577862 L902.820437,219.908277" id="Shape" stroke-width="0.75"></path>
                    <path d="M374.173333,409.286988 L345.458075,407.140377 L344.583095,413.023679 L331.219762,411.67211 L349.435258,293.68806 L446.796687,303.626069 L447.035317,314.995152 L440.274107,410.400045 L374.809683,405.788808 L374.173333,409.286988" id="Shape" stroke-width="0.75"></path>
                    <path d="M822.242718,170.297733 L821.526825,177.532604 L826.776706,177.532604 L888.343492,165.050464 L898.922798,175.624506 L917.376925,183.654417 L917.93373,160.757243 L917.376925,138.575606 L907.433968,119.335619 L905.524921,98.9030716 L894.229722,99.8571205 L884.36631,101.844722 L877.764187,105.10439 L867.184881,119.653636 L867.82123,129.671149 L869.093929,136.269988 L863.844048,138.178086 L859.866865,142.153289 L852.628393,144.220395 L841.333194,144.776924 L827.492599,148.195599 L827.492599,155.43047 L831.469782,160.041707 L827.492599,164.016911 L822.242718,169.979716 L822.242718,170.297733" id="Shape" stroke-width="0.75"></path>
                    <path d="M906.081726,282.080465 L902.184087,282.080465 L879.036885,287.327734 L850.639802,293.926572 L825.504008,295.278141 L818.742798,296.311694 L811.663413,300.763923 L800.368214,307.91929 L795.118333,312.451022 L790.504802,312.451022 L787.879861,318.493332 L780.561845,323.025064 L775.232421,325.728203 L771.334782,328.351837 L768.630298,336.302245 L767.357599,339.959433 L790.504802,337.017782 L796.391032,331.691009 L803.709048,331.691009 L824.867659,329.703407 L828.844841,333.042578 L851.276151,332.327041 L872.434762,346.876287 L874.423353,347.90984 L876.411944,345.922238 L881.741369,344.570669 L881.741369,339.959433 L884.36631,332.645057 L890.25254,324.774154 L900.831845,322.786552 L906.797619,318.095811 L904.809028,314.836144 L897.570556,316.823746 L900.831845,312.848542 L901.547738,308.873339 L894.229722,307.521769 L898.206905,306.249704 L905.524921,308.237306 L908.78621,303.546565 L912.127044,298.299296 L916.661032,300.286898 L915.388333,309.588875 L918.013274,305.613671 L918.729167,300.286898 L911.411151,290.348889 L906.797619,291.064425 L902.820437,295.039629 L896.854663,296.311694 L896.218313,292.972523 L900.831845,293.68806 L906.797619,288.997319 L909.42256,286.373685 L908.78621,281.046912 L906.081726,282.080465" id="Shape" stroke-width="0.75"></path>
                    <path d="M556.566925,109.477114 L554.578333,96.8359656 L553.226091,85.6258908 L553.941984,78.3115157 L548.692103,68.4530102 L548.692103,53.1882274 L525.863075,52.2341785 L500.886369,51.2801296 L475.511944,49.9285603 L451.0125,48.2589746 L446.160337,112.100748 L556.964643,117.189009 L556.566925,109.477114" id="Shape" stroke-width="0.75"></path>
                    <path d="M792.413849,253.618005 L799.731865,241.771898 L807.68623,237.796694 L812.299762,229.130749 L813.015655,210.6063 L809.913452,178.566157 L805.697639,181.825824 L792.413849,190.491768 L787.163968,193.751435 L781.277738,197.090606 L779.209603,194.466972 L775.232421,194.466972 L769.34619,195.103005 L764.09631,194.466972 L760.755476,193.433419 L742.937698,195.421021 L752.164762,247.019167 L752.164762,252.981972 L755.426052,252.981972 L760.119127,256.877672 L772.050675,259.580811 L780.561845,257.593209 L786.686706,258.78577 L790.345714,262.124941 L792.413849,253.618005" id="Shape" stroke-width="0.75"></path>
                    <path d="M446.796687,303.467061 L589.895714,308.396314 L592.282024,379.949983 L587.588948,379.313951 L582.339067,374.62321 L575.100595,374.066682 L569.134821,375.974779 L559.191865,376.690316 L552.589742,375.974779 L546.623968,376.690316 L542.646786,374.066682 L538.112798,374.066682 L531.510675,374.62321 L528.80619,371.999576 L526.18125,370.091478 L519.579127,369.375941 L514.329246,367.388339 L509.636171,364.764705 L505.022639,362.777103 L497.704623,361.425533 L498.420516,315.790193 L446.87623,315.154161 L446.796687,303.467061" id="Shape" stroke-width="0.75"></path>
                    <path d="M158.450952,54.2217804 L155.189663,57.4814476 L155.189663,64.7958226 L148.58754,74.7338322 L147.871647,79.3450687 L149.144345,82.6047358 L145.883056,86.0234111 L143.894464,89.998615 L143.258115,97.1539819 L139.917282,102.480755 L136.655992,104.547861 L138.56504,107.807528 L132.67881,110.431163 L131.406111,116.393968 L130.053869,121.005205 L131.962917,122.356774 L129.337976,126.331978 L129.337976,132.294784 L131.803829,136.985524 L195.43875,153.28386 L237.199167,163.142366 L255.255575,87.7725008 L257.164623,78.8680442 L248.653452,78.3115157 L242.051329,76.9599464 L235.449206,75.6878811 L224.154008,75.0518485 L220.892718,76.4034178 L214.926944,74.3363118 L210.949762,75.0518485 L205.063532,75.0518485 L199.018214,73.0642466 L195.756925,73.7002792 L193.768333,72.428214 L189.791151,71.0766447 L184.461726,72.428214 L176.586905,72.428214 L172.609722,65.8293756 L174.598313,56.5273986 L173.325615,53.9037641 L162.74631,50.5645929 L158.450952,54.2217804" id="Shape" stroke-width="0.75"></path>
                    <path d="M897.570556,211.321836 L816.913294,227.222652 L809.595278,179.59971 L822.242718,170.297733 L821.526825,177.532604 L826.776706,177.532604 L888.343492,165.050464 L898.445536,175.067977 L900.831845,178.24814 L898.206905,193.433419 L898.206905,198.680688 L905.524921,201.383827 L902.820437,208.698202 L897.570556,211.321836" id="Shape" stroke-width="0.75"></path>
                    <path d="M945.137659,162.983358 L945.137659,151.773283 L947.046706,152.409315 L951.023889,153.760885 L953.728373,156.066503 L953.092024,164.016911 L951.023889,166.720049 L944.421766,166.720049 L945.137659,162.983358" id="Shape" stroke-width="0.75"></path>
                    <path d="M872.434762,346.876287 L851.276151,332.327041 L828.844841,333.042578 L824.867659,329.703407 L803.709048,331.691009 L796.391032,331.691009 L790.504802,337.017782 L787.879861,337.57431 L785.254921,343.61662 L788.51621,346.876287 L793.129742,347.591824 L796.391032,350.851491 L805.697639,362.777103 L813.015655,363.413135 L822.242718,375.338747 L827.492599,383.289154 L830.753889,387.900391 L837.515099,386.628326 L844.912659,390.365017 L842.526349,385.038244 L840.060496,381.619569 L842.049087,381.619569 L847.935317,380.268 L847.935317,376.292796 L851.276151,375.736267 L855.889683,373.669161 L858.514623,367.070323 L863.844048,365.162225 L863.844048,361.187021 L867.184881,352.521077 L874.423353,347.750832 L872.434762,346.876287" id="Shape" stroke-width="0.75"></path>
                    <path d="M559.191865,192.08185 L553.941984,188.822182 L545.271726,182.859377 L540.021845,181.507807 L538.112798,184.131442 L534.135615,184.131442 L526.18125,178.24814 L441.228631,174.034424 L446.160337,112.100748 L555.851032,117.427521 L554.578333,121.323221 L553.941984,127.286027 L558.555516,132.533296 L559.191865,164.334927 L559.191865,167.674098 L556.566925,168.946163 L558.555516,188.106646 L563.169048,196.77259 L559.191865,192.08185" id="Shape" stroke-width="0.75"></path>
                    <path d="M692.745655,346.876287 L703.802222,346.240255 L767.039425,339.959433 L768.630298,336.302245 L771.334782,328.351837 L775.232421,325.728203 L780.561845,323.025064 L787.879861,318.493332 L790.504802,312.451022 L795.118333,312.451022 L800.368214,307.91929 L818.58371,296.391198 L805.06129,298.617313 L777.300556,302.592516 L731.6425,307.91929 L705.949901,311.178957 L698.631885,311.894493 L690.438889,316.50573 L680.814107,313.166559 L673.496091,322.468536 L674.211984,330.975472 L671.5075,340.913481 L667.132599,345.047693 L666.178075,347.273808 L674.848333,347.51232 L692.745655,346.876287" id="Shape" stroke-width="0.75"></path>
                    <path d="M600.793194,463.031744 L594.906964,467.006947 L590.929782,463.667776 L590.929782,460.408109 L586.31625,463.031744 L588.304841,467.006947 L586.952599,470.266614 L581.702718,476.865453 L573.748353,481.556193 L565.873532,485.531397 L559.191865,484.815861 L554.578333,484.179828 L555.851032,487.439495 L558.555516,490.06313 L557.919167,492.766268 L549.964802,494.038333 L545.987619,496.105439 L546.623968,498.729074 L544.714921,501.352709 L540.737738,501.988741 L540.737738,505.327912 L538.669603,509.939149 L534.771964,512.006255 L534.135615,515.265922 L539.385496,515.265922 L540.737738,519.241126 L538.112798,524.488395 L540.021845,528.463599 L541.374087,536.414006 L540.737738,541.661275 L542.010437,544.68243 L531.510675,541.661275 L520.215476,539.753178 L514.329246,537.129543 L505.658988,529.179135 L501.681806,519.241126 L496.431925,509.303116 L494.443333,501.988741 L489.829802,497.457009 L486.568512,494.038333 L483.227679,490.06313 L483.227679,484.179828 L479.250496,479.489087 L479.250496,474.241818 L473.921071,469.630582 L468.034841,464.939841 L463.341766,460.408109 L454.114702,459.05654 L444.887639,456.432905 L438.285516,459.05654 L436.933274,468.279013 L433.671984,470.982151 L429.694802,472.890249 L423.092679,468.915045 L413.865615,461.680174 L409.17254,456.432905 L407.263492,447.130928 L401.218175,438.544488 L400.661369,433.217715 L390.638869,425.982844 L389.366171,422.00764 L381.411806,413.341695 L374.09379,409.207483 L374.571052,405.947816 L440.274107,410.400045 L446.87623,315.154161 L498.420516,315.790193 L497.704623,361.425533 L505.022639,362.777103 L509.636171,364.764705 L514.329246,367.388339 L519.579127,369.375941 L526.18125,370.091478 L528.80619,371.999576 L531.510675,374.62321 L538.112798,374.066682 L542.646786,374.066682 L546.623968,376.690316 L552.589742,375.974779 L559.191865,376.690316 L569.134821,375.974779 L575.100595,374.066682 L582.339067,374.62321 L587.588948,379.313951 L592.282024,379.949983 L597.531905,381.937585 L600.236389,399.18997 L600.236389,415.011281 L606.838512,422.961689 L610.099802,430.912096 L611.3725,438.862504 L609.463452,446.097375 L605.48627,452.696214 L605.48627,457.386954 L606.122619,461.998191 L600.793194,463.031744" id="Shape" stroke-width="0.75"></path>
                    <path d="M932.172044,94.0533229 L931.21752,102.162739 L927.95623,109.477114 L927.95623,120.051156 L929.865278,130.625198 L929.785734,137.303541 L917.138294,138.496102 L907.433968,119.335619 L905.524921,98.9030716 L932.172044,94.0533229" id="Shape" stroke-width="0.75"></path>
                    <path d="M869.889365,234.139506 L875.775595,229.448766 L879.752778,236.842645 L878.480079,248.688752 L884.36631,254.015525 L892.241131,261.965933 L896.218313,265.941137 L892.87748,267.849235 L885.639008,267.849235 L892.241131,271.824439 L900.195496,273.812041 L905.524921,275.799643 L908.78621,281.046912 L902.184087,282.080465 L879.036885,287.327734 L850.639802,293.926572 L825.504008,295.278141 L805.06129,298.617313 L777.300556,302.592516 L778.652798,299.968882 L783.902679,295.278141 L789.788909,293.370044 L790.504802,288.679303 L797.743274,282.080465 L800.368214,282.716497 L809.595278,284.704099 L816.913294,282.080465 L824.151766,276.753691 L828.844841,270.87039 L831.469782,260.852876 L834.731071,254.969574 L838.708254,250.278834 L843.958135,250.994371 L845.310377,246.30363 L847.935317,240.420328 L853.980635,231.754384 L857.878274,225.871082 L867.82123,233.105953 L871.162063,233.82149 L869.889365,234.139506" id="Shape" stroke-width="0.75"></path>
                    <path d="M188.200278,16.4573439 L188.836627,19.1604825 L184.859444,23.8512231 L181.598155,28.3829554 L180.882262,31.7221267 L181.598155,34.4252653 L181.598155,37.0488998 L186.211687,35.6973305 L188.200278,32.3581593 L191.461567,29.0984921 L192.17746,23.8512231 L192.81381,18.5244499 L189.55252,18.5244499 L188.836627,15.1852787 L190.109325,12.5616441 L193.450159,8.5864403 L193.450159,1.35156931 L198.06369,0 L220.574544,5.88330169 L236.40373,11.2100748 L259.550933,17.1728806 L270.289325,20.1145314 L260.505456,65.8293756 L259.153214,71.7126773 L257.085079,78.8680442 L248.653452,78.3115157 L242.051329,76.9599464 L235.449206,75.6878811 L224.154008,75.0518485 L220.892718,76.4034178 L214.926944,74.3363118 L210.949762,75.0518485 L205.063532,75.0518485 L199.018214,73.0642466 L195.756925,73.7002792 L193.768333,72.428214 L189.791151,71.0766447 L184.461726,72.428214 L176.586905,72.428214 L172.609722,65.8293756 L174.598313,56.5273986 L173.325615,53.9037641 L165.053075,51.1211214 L161.075893,47.622942 L161.075893,41.6601363 L163.700833,34.9817938 L161.075893,32.3581593 L162.348591,23.1356864 L159.087302,11.2100748 L165.053075,1.35156931 L175.632381,11.9256115 L180.882262,10.5740422 L180.882262,13.8337094 L187.484385,15.1852787 L188.200278,16.4573439" id="Shape" stroke-width="0.75"></path>
                    <path d="M699.347778,111.782732 L696.643294,119.097107 L694.018353,127.604043 L690.67752,135.554451 L690.67752,138.893622 L694.654702,132.294784 L699.904583,126.331978 L702.609067,122.992807 L699.904583,128.955613 L697.279643,134.918418 L694.654702,144.776924 L695.370595,151.455266 L694.018353,161.393276 L694.018353,173.318888 L695.370595,179.917726 L694.654702,182.859377 L648.360298,184.131442 L647.087599,181.507807 L641.599087,172.444343 L639.371865,167.674098 L639.133234,159.008154 L635.871944,157.100056 L633.247004,151.773283 L629.269821,149.149648 L617.974623,145.810477 L615.349683,141.835273 L616.701925,131.261231 L615.349683,128.001564 L614.713333,122.674791 L614.713333,117.98405 L617.974623,115.360415 L624.01994,110.033642 L623.304048,108.125544 L622.667698,97.5515023 L625.292639,97.1539819 L631.894762,96.5974534 L637.224187,95.2458841 L641.201369,94.5303474 L642.474067,93.2582821 L644.462659,97.1539819 L650.428433,98.5055512 L657.030556,97.1539819 L654.405615,100.811169 L672.143849,104.786373 L686.700337,111.385212 L691.393413,123.310823 L699.347778,111.782732" id="Shape" stroke-width="0.75"></path>
                    <path d="M437.649167,216.569105 L444.649008,131.499743 L339.810476,119.335619 L325.890337,204.007461 L392.786548,212.037373 L437.649167,216.569105" id="Shape" stroke-width="0.75"></path>
                    <path d="M349.594345,293.847068 L263.20994,279.05931 L283.25494,174.431945 L329.390258,182.859377 L325.73125,203.927957 L359.06004,207.982665 L349.594345,293.847068" id="Shape" stroke-width="0.75"></path>
                    <path d="M794.481984,273.494024 L797.822817,282.159969 L809.595278,284.704099 L816.913294,282.080465 L824.151766,276.753691 L828.844841,270.87039 L831.469782,260.852876 L834.731071,254.969574 L838.708254,250.278834 L843.958135,250.994371 L845.310377,246.30363 L847.935317,240.420328 L853.980635,231.754384 L857.878274,225.871082 L867.82123,233.105953 L871.162063,233.82149 L865.832639,229.130749 L857.241925,223.803976 L836.083313,233.82149 L836.083313,223.48596 L817.072381,226.984139 L813.413373,207.903161 L812.299762,229.130749 L807.68623,237.796694 L799.731865,241.771898 L792.413849,253.618005 L790.504802,261.568413 L794.481984,273.494024" id="Shape" stroke-width="0.75"></path>
                </g>
            </g>
        </g>
    </g>
</svg>