<?xml version="1.0" standalone="no"?>
<!DOCTYPE svg PUBLIC "-//W3C//DTD SVG 20010904//EN"
 "http://www.w3.org/TR/2001/REC-SVG-20010904/DTD/svg10.dtd">
<svg version="1.0" xmlns="http://www.w3.org/2000/svg"
 width="700.000000pt" height="700.000000pt" viewBox="0 0 700.000000 700.000000"
 preserveAspectRatio="xMidYMid meet">
<metadata>
Created by potrace 1.11, written by Peter Selinger 2001-2013
</metadata>
<g transform="translate(0.000000,700.000000) scale(0.100000,-0.100000)"
fill="#000000" stroke="none">
<path d="M3357 6964 c-1 -1 -49 -5 -107 -9 -57 -4 -107 -8 -110 -10 -3 -1 -36
-6 -73 -10 -37 -3 -76 -8 -85 -10 -288 -54 -475 -105 -699 -191 -132 -51 -428
-192 -493 -235 -14 -9 -68 -43 -120 -75 -80 -50 -334 -233 -350 -253 -3 -3
-25 -24 -50 -45 -532 -461 -921 -1111 -1090 -1821 -29 -124 -55 -269 -65 -365
-4 -30 -8 -61 -10 -68 -6 -18 -19 -271 -18 -367 0 -44 3 -136 6 -204 6 -107
14 -171 43 -371 3 -19 12 -66 21 -105 8 -38 17 -81 19 -95 19 -98 104 -367
165 -522 49 -124 205 -428 283 -553 183 -292 403 -545 682 -786 307 -265 739
-506 1148 -641 112 -36 374 -104 438 -112 26 -4 53 -8 60 -11 14 -4 48 -9 138
-20 l55 -7 0 934 0 933 -655 1 c-360 1 -658 2 -661 3 -4 0 -9 25 -13 53 -10
74 -97 614 -111 690 -2 11 -9 52 -15 91 -13 91 -18 122 -36 227 -7 47 -14 90
-14 95 0 7 180 10 522 9 288 0 526 1 530 3 4 2 -8 32 -28 66 -34 60 -89 173
-141 287 -74 162 -173 458 -232 695 -26 105 -35 147 -56 255 -3 14 -16 91 -30
172 -23 131 -29 179 -40 283 -22 224 -22 225 -31 455 -3 102 -7 196 -8 210
l-1 25 -160 0 -160 0 -2 188 c-1 137 2 187 10 187 46 1 1257 -2 1932 -5 451
-2 964 -4 1140 -4 l321 -1 -1 -182 0 -183 -140 0 c-77 0 -143 -3 -146 -8 -3
-4 -7 -70 -8 -147 -1 -76 -4 -158 -6 -182 -2 -23 -6 -81 -10 -128 -15 -219
-47 -448 -91 -665 -40 -196 -41 -200 -49 -225 -3 -10 -8 -27 -10 -37 -40 -166
-105 -363 -184 -563 -50 -125 -170 -368 -216 -438 -20 -31 -29 -52 -21 -54 6
-3 246 -4 533 -4 460 1 522 -1 518 -14 -2 -8 -7 -35 -10 -60 -3 -25 -8 -52
-10 -60 -2 -8 -7 -40 -10 -70 -4 -30 -8 -57 -10 -60 -2 -3 -6 -25 -9 -50 -3
-25 -8 -54 -10 -65 -5 -25 -43 -265 -51 -320 -4 -22 -12 -76 -20 -120 -8 -44
-16 -96 -19 -115 -16 -112 -36 -224 -42 -229 -3 -3 -292 -7 -642 -7 -350 -1
-639 -2 -642 -3 -3 0 -7 -272 -9 -604 -1 -331 -4 -749 -5 -928 -2 -292 -1
-326 13 -323 9 2 61 10 116 19 105 16 135 22 173 30 12 3 32 7 45 10 139 29
262 66 457 137 131 48 332 141 465 216 196 111 471 306 617 439 172 157 394
405 498 560 136 199 185 282 279 470 167 334 303 776 337 1098 3 28 7 59 9 71
24 113 24 645 0 758 -2 12 -6 44 -9 71 -23 210 -118 583 -206 800 -59 146 -94
224 -159 350 -340 659 -847 1159 -1511 1491 -221 111 -542 227 -740 269 -121
26 -278 54 -325 60 -33 3 -67 8 -75 10 -44 11 -502 29 -513 19z"/>
</g>
</svg>
